<?xml version="1.0" encoding="iso-8859-1"?>
<!-- Generator: Adobe Illustrator 19.0.0, SVG Export Plug-In . SVG Version: 6.00 Build 0)  -->
<svg version="1.1" id="Capa_1" xmlns="http://www.w3.org/2000/svg" xmlns:xlink="http://www.w3.org/1999/xlink" x="0px" y="0px"
	 viewBox="0 0 511.998 511.998" style="enable-background:new 0 0 511.998 511.998;" xml:space="preserve">
<g>
	<g>
		<path d="M495.66,185.189h-70.808v-76.254h38.128c9.024,0,16.34-7.316,16.34-16.34s-7.316-16.34-16.34-16.34H354.043
			c-9.024,0-16.34,7.316-16.34,16.34s7.316,16.34,16.34,16.34h38.128v76.254h-27.234c-9.024,0-16.34,7.316-16.34,16.34v24.642
			c-22.93-25.165-55.949-40.983-92.596-40.983c-36.647,0-69.666,15.818-92.596,40.983v-24.642c0-9.024-7.316-16.34-16.34-16.34
			H119.83v-76.254h38.128c9.024,0,16.34-7.316,16.34-16.34s-7.316-16.34-16.34-16.34H49.021c-9.024,0-16.34,7.316-16.34,16.34
			s7.316,16.34,16.34,16.34h38.128v76.254H16.34c-9.024,0-16.34,7.316-16.34,16.34v108.936c0,9.024,7.316,16.34,16.34,16.34h38.128
			v76.255h-5.447c-9.024,0-16.34,7.316-16.34,16.34s7.316,16.34,16.34,16.34h43.574c9.024,0,16.34-7.316,16.34-16.34
			s-7.316-16.34-16.34-16.34h-5.447v-76.255h44.641c2.923,22.338,11.756,42.842,24.87,59.891l-21.15,21.15
			c-6.381,6.381-6.381,16.727,0,23.109c3.19,3.192,7.372,4.788,11.554,4.788s8.364-1.596,11.554-4.786l21.151-21.151
			c21.133,16.254,47.57,25.937,76.231,25.937s55.099-9.681,76.231-25.937l21.151,21.151c3.19,3.19,7.372,4.786,11.554,4.786
			c4.182,0,8.364-1.595,11.554-4.787c6.381-6.381,6.381-16.727,0-23.109l-21.15-21.15c13.114-17.05,21.947-37.552,24.87-59.891
			h44.641v76.255h-5.447c-9.024,0-16.34,7.316-16.34,16.34s7.316,16.34,16.34,16.34h43.574c9.024,0,16.34-7.316,16.34-16.34
			s-7.316-16.34-16.34-16.34h-5.447v-76.255h38.128c9.024,0,16.34-7.316,16.34-16.34V201.531
			C512,192.506,504.684,185.189,495.66,185.189z M130.724,294.126L130.724,294.126H32.681v-76.255h98.043V294.126z M256,403.063
			c-51.057,0-92.596-41.538-92.596-92.596c0-51.058,41.538-92.596,92.596-92.596c51.058,0,92.596,41.538,92.596,92.596
			C348.596,361.525,307.057,403.063,256,403.063z M479.319,294.127h-98.043v-76.255h98.043V294.127z"/>
	</g>
</g>
<g>
</g>
<g>
</g>
<g>
</g>
<g>
</g>
<g>
</g>
<g>
</g>
<g>
</g>
<g>
</g>
<g>
</g>
<g>
</g>
<g>
</g>
<g>
</g>
<g>
</g>
<g>
</g>
<g>
</g>
</svg>
